<?xml version="1.0" encoding="UTF-8"?>
<svg xmlns="http://www.w3.org/2000/svg" xmlns:xlink="http://www.w3.org/1999/xlink" width="2701" height="2101" viewBox="0 0 2701 2101">
<path fill-rule="evenodd" fill="rgb(100%, 100%, 100%)" fill-opacity="1" d="M 0.488281 0.570312 L 2700.488281 0.570312 L 2700.488281 2100.570312 L 0.488281 2100.570312 L 0.488281 0.570312 "/>
<path fill-rule="evenodd" fill="rgb(10.205078%, 10.205078%, 10.205078%)" fill-opacity="1" d="M 1635.621094 739.691406 L 1720.5 705.160156 L 1720.5 1446.277344 L 1635.621094 1506.304688 L 1635.621094 739.691406 "/>
<path fill-rule="evenodd" fill="rgb(10.205078%, 10.205078%, 10.205078%)" fill-opacity="1" d="M 1465.089844 528.671875 L 1718.769531 643.96875 L 1635.808594 678.691406 L 1380.96875 562.871094 L 1465.089844 528.671875 "/>
<path fill-rule="evenodd" fill="rgb(10.205078%, 10.205078%, 10.205078%)" fill-opacity="1" d="M 980.476562 569.609375 L 1570.410156 295.609375 L 1570.628906 201.5 L 980.476562 474.851562 L 980.476562 569.609375 "/>
<path fill-rule="evenodd" fill="rgb(10.205078%, 10.205078%, 10.205078%)" fill-opacity="1" d="M 980.476562 470.980469 L 1570.410156 744.980469 L 1570.628906 839.089844 L 980.476562 565.75 L 980.476562 470.980469 "/>
<path fill-rule="evenodd" fill="rgb(10.205078%, 10.205078%, 10.205078%)" fill-opacity="1" d="M 1486.511719 706.851562 L 1570.628906 744.011719 L 1570.628906 1509.054688 L 1485.75 1469.742188 L 1486.511719 706.851562 "/>
<path fill-rule="evenodd" fill="rgb(10.205078%, 10.205078%, 10.205078%)" fill-opacity="1" d="M 980.476562 1140.945312 L 1570.410156 1414.949219 L 1570.628906 1509.050781 L 980.476562 1235.710938 L 980.476562 1140.945312 "/>
<path fill-rule="nonzero" fill="rgb(0%, 0%, 0%)" fill-opacity="1" d="M 522.433594 1614.988281 L 499.867188 1636.414062 C 484.523438 1620.246094 467.292969 1612.160156 448.101562 1612.160156 C 431.929688 1612.160156 418.273438 1617.695312 407.203125 1628.722656 C 396.097656 1639.753906 390.566406 1653.332031 390.566406 1669.503906 C 390.566406 1680.765625 393.039062 1690.773438 397.941406 1699.484375 C 402.847656 1708.238281 409.796875 1715.105469 418.742188 1720.089844 C 427.730469 1725.074219 437.699219 1727.546875 448.691406 1727.546875 C 458.03125 1727.546875 466.585938 1725.820312 474.316406 1722.328125 C 482.089844 1718.835938 490.605469 1712.476562 499.867188 1703.292969 L 521.730469 1726.136719 C 509.246094 1738.339844 497.433594 1746.816406 486.328125 1751.527344 C 475.222656 1756.277344 462.503906 1758.632812 448.257812 1758.632812 C 421.964844 1758.632812 400.414062 1750.3125 383.65625 1733.632812 C 366.898438 1716.988281 358.539062 1695.601562 358.539062 1669.578125 C 358.539062 1652.703125 362.347656 1637.75 370 1624.640625 C 377.613281 1611.535156 388.523438 1601.015625 402.769531 1593.046875 C 416.976562 1585.082031 432.285156 1581.078125 448.730469 1581.078125 C 462.660156 1581.078125 476.085938 1584.019531 489.035156 1589.90625 C 501.949219 1595.796875 513.09375 1604.15625 522.433594 1614.988281 Z M 630.363281 1581.078125 C 654.265625 1581.078125 674.828125 1589.753906 692.019531 1607.058594 C 709.25 1624.367188 717.84375 1645.480469 717.84375 1670.363281 C 717.84375 1695.050781 709.367188 1715.929688 692.375 1733.003906 C 675.421875 1750.074219 654.816406 1758.632812 630.597656 1758.632812 C 605.207031 1758.632812 584.132812 1749.839844 567.371094 1732.296875 C 550.574219 1714.753906 542.175781 1693.914062 542.175781 1669.777344 C 542.175781 1653.644531 546.101562 1638.769531 553.910156 1625.191406 C 561.722656 1611.652344 572.472656 1600.898438 586.132812 1592.96875 C 599.828125 1585.042969 614.585938 1581.078125 630.363281 1581.078125 Z M 629.894531 1612.632812 C 614.3125 1612.632812 601.203125 1618.089844 590.605469 1628.960938 C 579.96875 1639.828125 574.671875 1653.644531 574.671875 1670.441406 C 574.671875 1689.125 581.34375 1703.921875 594.726562 1714.792969 C 605.128906 1723.308594 617.019531 1727.546875 630.480469 1727.546875 C 645.671875 1727.546875 658.621094 1722.015625 669.296875 1710.984375 C 680.011719 1699.957031 685.347656 1686.378906 685.347656 1670.207031 C 685.347656 1654.117188 679.972656 1640.496094 669.179688 1629.351562 C 658.425781 1618.203125 645.316406 1612.632812 629.894531 1612.632812 Z M 764.628906 1585.316406 L 795.828125 1585.316406 L 835.195312 1703.253906 L 874.753906 1585.316406 L 905.878906 1585.316406 L 934.214844 1754.394531 L 903.171875 1754.394531 L 885.117188 1647.601562 L 849.324219 1754.394531 L 820.90625 1754.394531 L 785.273438 1647.601562 L 766.863281 1754.394531 L 735.46875 1754.394531 Z M 960.078125 1585.316406 L 994.261719 1585.316406 C 1012.75 1585.316406 1026.050781 1587.003906 1034.21875 1590.417969 C 1042.378906 1593.832031 1048.851562 1599.367188 1053.558594 1606.980469 C 1058.269531 1614.59375 1060.628906 1623.738281 1060.628906 1634.414062 C 1060.628906 1646.226562 1057.53125 1656.039062 1051.328125 1663.851562 C 1045.171875 1671.660156 1036.769531 1677.113281 1026.128906 1680.175781 C 1019.890625 1681.941406 1008.550781 1682.804688 992.105469 1682.804688 L 992.105469 1754.394531 L 960.078125 1754.394531 Z M 992.105469 1651.488281 L 1002.429688 1651.488281 C 1010.550781 1651.488281 1016.160156 1650.898438 1019.339844 1649.761719 C 1022.519531 1648.582031 1024.988281 1646.699219 1026.839844 1644.03125 C 1028.640625 1641.359375 1029.550781 1638.144531 1029.550781 1634.335938 C 1029.550781 1627.78125 1026.988281 1622.992188 1021.890625 1620.011719 C 1018.199219 1617.773438 1011.300781 1616.636719 1001.25 1616.636719 L 992.105469 1616.636719 Z M 1143.871094 1585.316406 L 1176.289062 1585.316406 L 1241.359375 1754.394531 L 1207.878906 1754.394531 L 1194.699219 1719.539062 L 1125.390625 1719.539062 L 1111.890625 1754.394531 L 1078.410156 1754.394531 Z M 1160.121094 1630.253906 L 1137.199219 1688.457031 L 1182.921875 1688.457031 Z M 1266.601562 1585.316406 L 1297.128906 1585.316406 L 1369.96875 1696.582031 L 1369.96875 1585.316406 L 1402 1585.316406 L 1402 1754.394531 L 1371.230469 1754.394531 L 1298.621094 1643.480469 L 1298.621094 1754.394531 L 1266.601562 1754.394531 Z M 1428.410156 1585.316406 L 1462.828125 1585.316406 L 1494.230469 1646.03125 L 1525.628906 1585.316406 L 1560.050781 1585.316406 L 1510.480469 1681.15625 L 1510.480469 1754.394531 L 1477.980469 1754.394531 L 1477.980469 1681.15625 Z M 1652.941406 1585.316406 L 1669.898438 1585.316406 L 1669.898438 1737.910156 L 1735.128906 1737.910156 L 1735.128906 1754.394531 L 1652.941406 1754.394531 Z M 1842.308594 1581.078125 C 1867.898438 1581.078125 1889.328125 1589.632812 1906.558594 1606.707031 C 1923.789062 1623.777344 1932.421875 1644.816406 1932.421875 1669.777344 C 1932.421875 1694.539062 1923.828125 1715.539062 1906.640625 1732.765625 C 1889.410156 1749.996094 1868.449219 1758.632812 1843.691406 1758.632812 C 1818.640625 1758.632812 1797.488281 1750.035156 1780.261719 1732.886719 C 1763.03125 1715.734375 1754.398438 1694.972656 1754.398438 1670.601562 C 1754.398438 1654.351562 1758.320312 1639.320312 1766.171875 1625.425781 C 1774.019531 1611.574219 1784.738281 1600.703125 1798.320312 1592.851562 C 1811.859375 1585.003906 1826.53125 1581.078125 1842.308594 1581.078125 Z M 1843.058594 1597.5625 C 1830.578125 1597.5625 1818.71875 1600.820312 1807.5 1607.335938 C 1796.308594 1613.847656 1787.558594 1622.601562 1781.238281 1633.628906 C 1774.960938 1644.695312 1771.820312 1656.980469 1771.820312 1670.5625 C 1771.820312 1690.617188 1778.769531 1707.570312 1792.699219 1721.386719 C 1806.640625 1735.238281 1823.429688 1742.148438 1843.058594 1742.148438 C 1856.199219 1742.148438 1868.328125 1738.96875 1879.480469 1732.609375 C 1890.660156 1726.253906 1899.378906 1717.539062 1905.621094 1706.511719 C 1911.859375 1695.484375 1915 1683.238281 1915 1669.738281 C 1915 1656.3125 1911.859375 1644.1875 1905.621094 1633.355469 C 1899.378906 1622.523438 1890.550781 1613.847656 1879.199219 1607.335938 C 1867.859375 1600.820312 1855.808594 1597.5625 1843.058594 1597.5625 Z M 2129.800781 1613.652344 L 2116.691406 1626.054688 C 2107.230469 1616.792969 2096.871094 1609.769531 2085.601562 1604.980469 C 2074.339844 1600.191406 2063.351562 1597.796875 2052.640625 1597.796875 C 2039.328125 1597.796875 2026.648438 1601.054688 2014.640625 1607.570312 C 2002.601562 1614.085938 1993.261719 1622.914062 1986.660156 1634.101562 C 1980.03125 1645.246094 1976.730469 1657.019531 1976.730469 1669.460938 C 1976.730469 1682.179688 1980.148438 1694.265625 1986.980469 1705.765625 C 1993.800781 1717.226562 2003.261719 1726.214844 2015.308594 1732.765625 C 2027.398438 1739.320312 2040.589844 1742.617188 2054.949219 1742.617188 C 2072.378906 1742.617188 2087.128906 1737.710938 2099.179688 1727.941406 C 2111.230469 1718.167969 2118.371094 1705.453125 2120.609375 1689.871094 L 2066.691406 1689.871094 L 2066.691406 1673.386719 L 2139.691406 1673.386719 C 2139.53125 1699.484375 2131.761719 1720.246094 2116.371094 1735.59375 C 2100.949219 1750.9375 2080.378906 1758.632812 2054.558594 1758.632812 C 2023.238281 1758.632812 1998.441406 1747.996094 1980.148438 1726.683594 C 1966.101562 1710.277344 1959.070312 1691.324219 1959.070312 1669.777344 C 1959.070312 1653.804688 1963.109375 1638.890625 1971.160156 1625.074219 C 1979.238281 1611.296875 1990.308594 1600.503906 2004.359375 1592.734375 C 2018.449219 1584.964844 2034.351562 1581.078125 2052.089844 1581.078125 C 2066.449219 1581.078125 2079.988281 1583.667969 2092.671875 1588.808594 C 2105.339844 1593.988281 2117.75 1602.230469 2129.800781 1613.652344 Z M 2252.320312 1581.078125 C 2277.910156 1581.078125 2299.339844 1589.632812 2316.570312 1606.707031 C 2333.800781 1623.777344 2342.441406 1644.816406 2342.441406 1669.777344 C 2342.441406 1694.539062 2333.839844 1715.539062 2316.648438 1732.765625 C 2299.421875 1749.996094 2278.460938 1758.632812 2253.699219 1758.632812 C 2228.660156 1758.632812 2207.5 1750.035156 2190.28125 1732.886719 C 2173.050781 1715.734375 2164.410156 1694.972656 2164.410156 1670.601562 C 2164.410156 1654.351562 2168.339844 1639.320312 2176.191406 1625.425781 C 2184.03125 1611.574219 2194.75 1600.703125 2208.328125 1592.851562 C 2221.871094 1585.003906 2236.550781 1581.078125 2252.320312 1581.078125 Z M 2253.070312 1597.5625 C 2240.589844 1597.5625 2228.738281 1600.820312 2217.511719 1607.335938 C 2206.328125 1613.847656 2197.578125 1622.601562 2191.261719 1633.628906 C 2184.980469 1644.695312 2181.839844 1656.980469 2181.839844 1670.5625 C 2181.839844 1690.617188 2188.78125 1707.570312 2202.71875 1721.386719 C 2216.648438 1735.238281 2233.449219 1742.148438 2253.070312 1742.148438 C 2266.21875 1742.148438 2278.351562 1738.96875 2289.488281 1732.609375 C 2300.679688 1726.253906 2309.390625 1717.539062 2315.628906 1706.511719 C 2321.871094 1695.484375 2325.011719 1683.238281 2325.011719 1669.738281 C 2325.011719 1656.3125 2321.871094 1644.1875 2315.628906 1633.355469 C 2309.390625 1622.523438 2300.558594 1613.847656 2289.21875 1607.335938 C 2277.871094 1600.820312 2265.828125 1597.5625 2253.070312 1597.5625 "/>
</svg>
